<?xml version="1.0" encoding="utf-8"?>
<svg width="36px" height="30px" viewBox="0 0 36 30" version="1.1" xmlns:xlink="http://www.w3.org/1999/xlink" xmlns="http://www.w3.org/2000/svg">
  <g id="Icon">
    <path d="M12.2145 0L4.0715 0C2.9404 0 1.97916 0.397773 1.18733 1.1931C0.395876 1.98857 0 2.95442 0 4.09102L0 12.2728C0 13.4093 0.395653 14.375 1.18733 15.1703C1.97908 15.9656 2.94062 16.3635 4.0715 16.3635L8.82149 16.3635C9.38678 16.3635 9.86755 16.5624 10.2634 16.9601C10.6593 17.3575 10.8572 17.8407 10.8572 18.4091L10.8572 19.0906C10.8572 20.5964 10.3269 21.8815 9.26676 22.947C8.20651 24.0121 6.92723 24.5448 5.42847 24.5448L4.0715 24.5448C3.7037 24.5448 3.38574 24.6801 3.11702 24.9498C2.84852 25.2195 2.71416 25.5392 2.71416 25.9085L2.71416 28.6362C2.71416 29.0049 2.84852 29.3252 3.11702 29.595C3.38596 29.8646 3.70363 30 4.0715 30L5.42855 30C6.89893 30 8.30202 29.7119 9.63805 29.1368C10.974 28.5617 12.1296 27.7837 13.1051 26.8036C14.0804 25.8233 14.8545 24.6624 15.427 23.32C15.9994 21.9776 16.2857 20.5679 16.2857 19.0906L16.2857 4.09072C16.2857 2.95412 15.8898 1.98834 15.0983 1.19302C14.3068 0.397698 13.3453 0 12.2145 0Z" id="Path" fill="#F2F1F1" fill-rule="evenodd" stroke="none" />
    <path d="M15.0979 1.1931C14.3064 0.397773 13.3451 0 12.214 0L4.07113 0C2.94001 0 1.97875 0.397773 1.1872 1.1931C0.395734 1.98864 0 2.95442 0 4.09102L0 12.2728C0 13.4093 0.395734 14.375 1.1872 15.1703C1.97875 15.9656 2.94008 16.3635 4.07113 16.3635L8.82121 16.3635C9.38651 16.3635 9.86766 16.5624 10.2635 16.9601C10.6589 17.3577 10.8572 17.8407 10.8572 18.4091L10.8572 19.0906C10.8572 20.5964 10.327 21.8815 9.26656 22.947C8.20636 24.0121 6.92736 24.5448 5.42842 24.5448L4.07113 24.5448C3.70362 24.5448 3.38536 24.6801 3.11693 24.9498C2.84828 25.2195 2.71377 25.5392 2.71377 25.9085L2.71377 28.6362C2.71377 29.0049 2.84828 29.3252 3.11693 29.595C3.38528 29.8646 3.70355 30 4.07113 30L5.42842 30C6.89861 30 8.30166 29.7119 9.63785 29.1368C10.9736 28.5617 12.1291 27.7837 13.1047 26.8036C14.0802 25.8233 14.8547 24.6621 15.4269 23.32C15.9992 21.9779 16.2857 20.5679 16.2857 19.0906L16.2857 4.09072C16.2855 2.95412 15.89 1.98834 15.0979 1.1931Z" transform="translate(19.714285 0)" id="Path" fill="#F2F1F1" fill-rule="evenodd" stroke="none" />
  </g>
</svg>