<?xml version="1.0" encoding="utf-8"?>
<svg width="52px" height="91px" viewBox="0 0 52 91" version="1.1" xmlns:xlink="http://www.w3.org/1999/xlink" xmlns="http://www.w3.org/2000/svg">
  <g id="Icon" transform="translate(0.5 0.5)">
    <path d="M25.5 51C39.5833 51 51 39.5833 51 25.5C51 11.4167 39.5833 0 25.5 0C11.4167 0 0 11.4167 0 25.5C0 39.5833 11.4167 51 25.5 51Z" transform="translate(0 1)" id="Oval" fill="#6F55FF" fill-rule="evenodd" stroke="none" />
    <g id="“" fill="#FFFFFF" transform="translate(11 0)">
      <path d="M26.175 32.5875Q26.175 34.4625 24.7875 35.775Q23.4 37.0875 21.3 37.0875Q18.975 37.0875 17.4 35.4375Q15.825 33.7875 15.825 30.7125Q15.825 24.6375 18.9375 21.3Q22.05 17.9625 25.8 17.5875L25.8 21.1125Q23.4 21.6375 21.825 23.8125Q20.25 25.9875 20.175 28.3875Q20.7 28.0125 21.675 28.0125Q23.625 28.0125 24.9 29.25Q26.175 30.4875 26.175 32.5875ZM13.35 32.5875Q13.35 34.4625 11.9625 35.775Q10.575 37.0875 8.475 37.0875Q6.15 37.0875 4.575 35.4375Q3 33.7875 3 30.7125Q3 24.6375 6.1125 21.3Q9.225 17.9625 12.975 17.5875L12.975 21.1125Q10.575 21.6375 9 23.8125Q7.425 25.9875 7.35 28.3875Q7.95 28.0125 8.85 28.0125Q10.8 28.0125 12.075 29.25Q13.35 30.4875 13.35 32.5875Z" />
    </g>
  </g>
</svg>